<svg width="481" height="339" viewBox="0 0 481 339" fill="none" xmlns="http://www.w3.org/2000/svg">
<path d="M0.000421972 336.301V2.24477H66.0034C83.9634 2.24477 95.1884 11.6738 95.1884 34.5728V129.312C95.1884 145.925 84.4124 154.007 78.1264 155.803C85.7594 158.048 98.3314 165.681 98.3314 186.335V297.687C98.3314 322.831 87.1064 336.301 65.5544 336.301H0.000421972ZM47.1454 35.9198H44.0024V143.68H47.1454C50.7374 143.68 52.5334 141.884 52.5334 137.394V42.2058C52.5334 37.7158 51.6354 35.9198 47.1454 35.9198ZM48.0434 176.457H44.0024V301.728H48.0434C52.5334 301.728 52.9824 299.932 52.9824 294.993V183.641C52.9824 178.702 52.0844 176.457 48.0434 176.457ZM103.919 2.24477H177.106V42.2058H147.023V139.639H173.065V180.947H147.023V295.891H178.004V336.301H103.919V2.24477ZM233.102 230.337L227.714 89.3508L222.326 230.337H233.102ZM237.143 336.301L234.449 268.502H220.53L217.836 336.301H180.12L201.223 2.24477H256.899L279.349 336.301H237.143ZM325.504 35.9198V145.027H328.647C332.239 145.027 333.586 143.231 333.586 139.19V41.7568C333.586 37.7158 333.137 35.9198 329.096 35.9198H325.504ZM325.504 182.743V336.301H281.502V2.24477H349.75C365.016 2.24477 376.69 12.5718 376.69 33.2258V129.761C376.69 147.272 368.159 154.456 361.424 157.599C368.608 160.293 377.588 167.926 377.588 181.845V324.178C377.588 329.117 378.486 332.709 379.384 335.403V336.301H336.729C334.933 334.505 333.586 330.464 333.586 325.525V188.58C333.586 185.437 333.137 182.743 328.647 182.743H325.504ZM425.873 338.546C397.137 338.546 382.769 324.627 382.769 298.136V193.968H425.873V294.993C425.873 299.483 426.771 302.177 430.363 302.177C433.955 302.177 435.302 299.483 435.302 294.993V208.336C435.302 199.356 433.955 195.764 427.669 189.478L403.872 166.13C389.504 152.66 384.116 137.843 384.116 117.189V41.3078C384.116 16.1638 396.239 -0.000224531 427.669 -0.000224531H437.547C469.426 -0.000224531 478.855 16.1638 478.855 37.7158V127.516H437.098V39.5118C437.098 35.9198 435.751 34.1238 432.608 34.1238C429.465 34.1238 428.118 35.9198 428.118 39.5118V115.393C428.118 123.924 429.465 126.618 434.853 132.455L458.201 155.803C475.263 171.069 480.651 183.192 480.651 206.54V292.748C480.651 321.035 466.283 338.546 435.751 338.546H425.873Z" fill="#DE2053"/>
</svg>
