<svg width="635" height="368" viewBox="0 0 635 368" fill="none" xmlns="http://www.w3.org/2000/svg">
<path d="M23.4263 362.44L23.8683 359.788L36.2443 326.196L92.3783 38.4544C44.2003 53.9244 17.2383 110.058 17.2383 123.76C17.2383 126.412 46.4103 131.274 61.8803 131.716V133.042C55.6923 141.44 36.6863 160.446 29.6143 154.258C21.2163 147.186 0.000337571 100.334 0.000337571 77.7924C0.000337571 52.5984 56.1343 30.9404 118.898 30.9404H133.926C198.9 30.9404 213.928 59.6704 213.928 87.5164C213.928 128.18 182.104 171.938 136.578 179.452C176.8 183.872 191.386 212.602 191.386 247.078C191.386 306.748 148.512 362.44 94.5883 362.44H23.4263ZM163.54 63.6484C163.54 45.9684 160.004 38.4544 148.954 35.8024L121.55 178.126H125.97C141.44 178.126 163.54 106.964 163.54 63.6484ZM122.434 181.662H120.666L86.6323 357.136C89.7263 357.578 91.9363 357.578 94.1463 357.578C106.522 357.578 137.02 292.162 137.02 205.972C137.02 183.43 128.622 181.662 122.434 181.662ZM191.991 316.914C191.991 282.88 240.611 179.452 240.611 152.932C240.611 151.164 240.169 150.722 239.727 150.722C237.517 150.722 233.097 155.142 224.699 179.452L222.489 179.01C230.887 146.302 243.705 124.202 257.849 124.202C269.341 124.202 288.789 150.722 288.789 169.286C288.789 188.734 242.821 302.328 242.821 327.522C242.821 330.616 243.263 331.942 245.473 331.942C250.777 331.942 261.827 294.814 291.441 209.508L319.729 128.18H373.653C347.133 230.724 321.939 316.03 321.939 335.92C321.939 338.13 322.823 339.014 323.707 339.014C325.917 339.014 332.989 327.08 339.619 308.958L341.829 309.4C334.315 339.014 319.729 367.302 306.911 367.302C292.325 367.302 270.667 344.76 270.667 324.87C270.667 311.168 283.927 265.642 302.049 194.038L295.861 211.718C249.893 343.876 240.611 367.302 230.887 367.302C206.135 367.302 191.991 334.594 191.991 316.914ZM399.095 335.92C399.095 338.13 399.979 339.014 400.863 339.014C402.631 339.014 410.145 327.08 416.775 308.958L418.985 309.4C409.703 339.014 396.885 367.302 384.067 367.302C369.481 367.302 347.823 345.644 347.823 325.312C347.823 309.4 355.337 279.786 362.851 251.94L419.869 36.2444L420.753 8.84042L483.075 0.000406504L477.771 19.0064L417.217 251.94C407.935 289.068 399.095 322.218 399.095 335.92ZM479.812 335.92C479.812 338.13 480.696 339.014 481.58 339.014C483.348 339.014 490.862 327.08 497.492 308.958L499.702 309.4C490.42 339.014 477.602 367.302 464.784 367.302C450.198 367.302 428.54 345.644 428.54 325.312C428.54 309.4 436.054 279.786 443.568 251.94L500.586 36.2444L501.47 8.84042L563.792 0.000406504L558.488 19.0064L497.934 251.94C488.652 289.068 479.812 322.218 479.812 335.92ZM532.396 367.302C514.716 367.302 499.246 360.23 493.058 353.6L507.202 305.864L509.412 306.306C517.81 337.688 526.65 362.44 533.28 362.44C539.026 362.44 548.75 343.434 548.75 300.118C548.75 261.222 539.91 228.072 539.91 199.784C539.91 144.092 573.502 124.202 603.558 124.202C619.912 124.202 631.404 129.948 634.056 133.042L621.238 178.568H619.912C611.956 145.418 606.652 129.064 598.696 129.064C592.95 129.064 587.204 137.904 587.204 164.424C587.204 201.11 598.254 241.774 598.254 278.46C598.254 337.688 569.082 367.302 532.396 367.302Z" fill="#61E26B"/>
</svg>
