<svg width="118" height="120" viewBox="0 0 118 120" fill="none" xmlns="http://www.w3.org/2000/svg">
<path d="M17.222 26.5959L26.596 1.96195H58.424C49.268 25.288 28.558 81.75 28.558 96.574C28.558 99.19 29.866 100.498 31.174 100.498C37.278 100.498 51.012 68.67 62.784 26.1599L60.168 2.83395L60.822 1.96195H74.338L74.12 2.83395L64.964 26.378C44.69 100.062 27.25 119.9 13.516 119.9C4.79604 119.9 3.88026e-05 113.142 3.88026e-05 103.768C3.88026e-05 78.044 30.52 40.7659 46.434 26.5959H17.222ZM67.6516 119.9C58.9316 119.9 51.3016 116.412 48.2496 113.142L55.2256 89.598L56.3156 89.816C60.4576 105.294 64.8176 117.502 68.0876 117.502C70.9216 117.502 75.7176 108.128 75.7176 86.764C75.7176 67.5799 71.3576 51.2299 71.3576 37.2779C71.3576 9.80995 87.9256 -5.43594e-05 102.75 -5.43594e-05C110.816 -5.43594e-05 116.484 2.83395 117.792 4.35994L111.47 26.814H110.816C106.892 10.4639 104.276 2.39795 100.352 2.39795C97.5176 2.39795 94.6836 6.75795 94.6836 19.838C94.6836 37.932 100.134 57.988 100.134 76.082C100.134 105.294 85.7456 119.9 67.6516 119.9Z" fill="white"/>
</svg>
