<svg width="54" height="80" viewBox="0 0 54 80" fill="none" xmlns="http://www.w3.org/2000/svg">
<path d="M52.8027 68.87C51.1433 67.4987 48.9862 67.9272 47.9076 69.5557C47.7417 69.8128 47.4098 69.9843 47.1609 69.8128L34.384 63.7275C34.0522 63.5561 34.0522 63.0418 34.384 62.9561L47.1609 56.8708C47.4098 56.6993 47.7417 56.8708 47.9076 57.1279C48.9862 58.7564 51.1433 59.1849 52.8027 57.8136C53.7153 57.0422 54.1301 55.8422 53.9642 54.728C53.7983 53.6138 53.1345 52.7567 52.3049 52.2425C51.8071 51.9853 51.5582 51.3854 51.6411 50.7854C51.8071 49.8426 51.6411 48.7284 50.8944 47.8713C50.1477 46.9285 48.9862 46.5 47.8247 46.7571C45.7505 47.0999 44.6719 49.1569 45.1697 51.0425C45.2527 51.3854 45.1697 51.6425 44.8379 51.8139L27.8297 59.8706C27.3319 60.1277 26.6681 60.1277 26.1703 59.8706L9.16215 51.8139C8.91325 51.6425 8.74731 51.3854 8.83028 51.0425C9.32808 49.1569 8.24951 47.0999 6.17534 46.7571C5.09678 46.5857 3.85227 47.0142 3.10557 47.8713C2.35887 48.7284 2.19294 49.8426 2.35887 50.7854C2.44184 51.2997 2.19294 51.8996 1.69514 52.2425C0.865471 52.7567 0.201736 53.6138 0.0358029 54.728C-0.130131 55.928 0.284703 57.1279 1.19734 57.8136C2.85667 59.1849 5.01381 58.7564 6.09238 57.1279C6.25831 56.8708 6.59018 56.6993 6.83908 56.8708L19.616 62.9561C19.9478 63.1275 19.9478 63.6418 19.616 63.7275L6.83908 69.8128C6.59018 69.9843 6.25831 69.8128 6.09238 69.5557C5.01381 67.9272 2.85667 67.4987 1.19734 68.87C0.284703 69.6414 -0.130131 70.8413 0.0358029 71.9556C0.201736 73.0698 0.865471 73.9269 1.69514 74.4411C2.19294 74.6983 2.44184 75.2982 2.35887 75.8982C2.19294 76.841 2.35887 77.9552 3.10557 78.8123C3.85227 79.7551 5.01381 80.1836 6.17534 79.9265C8.24951 79.5837 9.32808 77.5267 8.83028 75.6411C8.74731 75.2982 8.83028 75.0411 9.16215 74.8697L26.1703 66.813C26.6681 66.5559 27.3319 66.5559 27.8297 66.813L44.8379 74.8697C45.0868 75.0411 45.2527 75.2982 45.1697 75.6411C44.6719 77.5267 45.7505 79.5837 47.8247 79.9265C48.9032 80.0979 50.1477 79.6694 50.8944 78.8123C51.6411 77.9552 51.8071 76.841 51.6411 75.8982C51.5582 75.3839 51.8071 74.784 52.3049 74.4411C53.1345 73.9269 53.7983 73.0698 53.9642 71.9556C54.1301 70.8413 53.7153 69.6414 52.8027 68.87Z" fill="#DE2053"/>
<circle cx="15.8511" cy="21.187" r="5.35306" fill="black"/>
<circle cx="36.2857" cy="21.187" r="5.35306" fill="black"/>
<path d="M15.394 25.4213C16.6601 25.4213 17.7424 24.9796 18.641 24.096C19.5395 23.2124 19.9888 22.1483 19.9888 20.9033C19.9888 19.6182 19.5395 18.5539 18.641 17.7106C17.7833 16.827 16.7009 16.3853 15.394 16.3853C14.0871 16.3853 12.9843 16.827 12.0858 17.7106C11.2281 18.5539 10.7993 19.6182 10.7993 20.9033C10.7993 22.1483 11.2281 23.2124 12.0858 24.096C12.9843 24.9796 14.0871 25.4213 15.394 25.4213ZM28.9332 32.5296L27.7079 24.8791H24.3997L23.1744 32.5296H28.9332ZM36.7136 25.4213C38.0205 25.4213 39.1029 24.9796 39.9606 24.096C40.8592 23.2124 41.3084 22.1483 41.3084 20.9033C41.3084 19.6182 40.8592 18.5539 39.9606 17.7106C39.1029 16.827 38.0205 16.3853 36.7136 16.3853C35.4475 16.3853 34.3653 16.827 33.4667 17.7106C32.5681 18.5941 32.1189 19.6582 32.1189 20.9033C32.1189 22.1483 32.5681 23.2124 33.4667 24.096C34.3653 24.9796 35.4475 25.4213 36.7136 25.4213ZM13.6786 35.7826H13.9237C12.0041 35.7826 10.2887 35.3409 8.77756 34.4573C7.30724 33.5337 6.14324 32.2887 5.28555 30.7224C4.42787 29.1562 3.99902 27.4292 3.99902 25.5418V19.0961C3.99902 15.4014 4.93839 12.1082 6.81714 9.21672C8.69589 6.3252 11.3098 4.07625 14.6588 2.46984C18.0079 0.823289 21.8063 0 26.0538 0C30.3013 0 34.0997 0.823289 37.4488 2.46984C40.7979 4.07625 43.4117 6.3252 45.2905 9.21672C47.1693 12.1082 48.1086 15.4014 48.1086 19.0961V25.5418C48.1086 27.4292 47.6798 29.1562 46.8221 30.7224C45.9644 32.2887 44.7801 33.5337 43.2688 34.4573C41.7985 35.3409 40.1035 35.7826 38.184 35.7826H38.429L37.5101 45.7824H14.5976L13.6786 35.7826Z" fill="#DE2053"/>
</svg>
