<svg width="40" height="40" viewBox="0 0 40 40" fill="none" xmlns="http://www.w3.org/2000/svg">
<path d="M26.6244 20.875L20.2077 13.9583L21.1243 13.9583L21.166 28.3333L18.8327 28.3333L18.8743 13.9583L19.791 13.9583L13.3743 20.875L11.7493 19.25L19.9993 11L28.2494 19.25L26.6244 20.875ZM19.9993 3.3333C23.0548 3.3333 25.8605 4.06946 28.416 5.54163C30.9716 7.0138 32.9855 9.0278 34.4577 11.5833C35.9299 14.1388 36.666 16.9445 36.666 20C36.666 23.0555 35.9299 25.8611 34.4577 28.4166C32.9855 30.9722 30.9716 32.9861 28.416 34.4583C25.8605 35.9305 23.0548 36.6666 19.9993 36.6666C16.9438 36.6666 14.1382 35.9305 11.5827 34.4583C9.02716 32.9861 7.01317 30.9722 5.541 28.4166C4.06883 25.8611 3.33267 23.0555 3.33267 20C3.33267 16.9445 4.06883 14.1388 5.541 11.5833C7.01317 9.02779 9.02717 7.0138 11.5827 5.54163C14.1382 4.06946 16.9438 3.3333 19.9993 3.3333ZM19.9993 5.66663C17.3605 5.66663 14.9577 6.29163 12.791 7.54163C10.5965 8.81946 8.87433 10.5416 7.62433 12.7083C6.3465 14.9028 5.70767 17.3333 5.70767 20C5.70767 22.6666 6.3465 25.0833 7.62433 27.25C8.87433 29.4444 10.5965 31.1666 12.791 32.4166C14.9577 33.6944 17.3605 34.3333 19.9993 34.3333C22.6382 34.3333 25.0549 33.6944 27.2493 32.4166C29.416 31.1666 31.1382 29.4444 32.416 27.25C33.666 25.0833 34.291 22.6666 34.291 20C34.291 17.3333 33.666 14.9028 32.416 12.7083C31.1382 10.5416 29.416 8.81946 27.2494 7.54163C25.0549 6.29163 22.6382 5.66663 19.9993 5.66663Z" fill="#61E26B"/>
</svg>
