<svg width="40" height="40" viewBox="0 0 40 40" fill="none" xmlns="http://www.w3.org/2000/svg">
<path d="M13.3757 19.125L19.7923 26.0417H18.8757L18.834 11.6667H21.1673L21.1257 26.0417H20.209L26.6257 19.125L28.2507 20.75L20.0007 29L11.7507 20.75L13.3757 19.125ZM20.0007 36.6667C16.9452 36.6667 14.1395 35.9305 11.584 34.4584C9.02843 32.9862 7.01453 30.9722 5.54232 28.4167C4.0701 25.8612 3.33398 23.0555 3.33398 20C3.33398 16.9445 4.0701 14.1389 5.54232 11.5834C7.01453 9.02782 9.02843 7.01392 11.584 5.54171C14.1395 4.06949 16.9452 3.33337 20.0007 3.33337C23.0562 3.33337 25.8618 4.06949 28.4173 5.54171C30.9728 7.01392 32.9868 9.02782 34.459 11.5834C35.9312 14.1389 36.6673 16.9445 36.6673 20C36.6673 23.0555 35.9312 25.8612 34.459 28.4167C32.9868 30.9722 30.9728 32.9862 28.4173 34.4584C25.8618 35.9305 23.0562 36.6667 20.0007 36.6667ZM20.0007 34.3334C22.6395 34.3334 25.0423 33.7084 27.209 32.4584C29.4035 31.1805 31.1257 29.4584 32.3757 27.2917C33.6535 25.0972 34.2923 22.6667 34.2923 20C34.2923 17.3334 33.6535 14.9167 32.3757 12.75C31.1257 10.5556 29.4035 8.83337 27.209 7.58337C25.0423 6.30559 22.6395 5.66671 20.0007 5.66671C17.3618 5.66671 14.9451 6.30559 12.7507 7.58337C10.584 8.83337 8.86177 10.5556 7.58398 12.75C6.33398 14.9167 5.70898 17.3334 5.70898 20C5.70898 22.6667 6.33398 25.0972 7.58398 27.2917C8.86177 29.4584 10.584 31.1805 12.7507 32.4584C14.9451 33.7084 17.3618 34.3334 20.0007 34.3334Z" fill="#DE2053"/>
</svg>
