<svg width="90" height="57" viewBox="0 0 90 57" fill="none" xmlns="http://www.w3.org/2000/svg">
<path d="M10.9464 35.2155L9.23603 17.2223L8.82554 10.1072L4.03649 45.6146L5.13113 53.6876L5.06271 54.0981H0L0.0684151 53.6876L1.91562 45.6146L6.77309 9.08096L6.56784 3.19726L6.63626 2.78677H14.0251L15.325 16.7434L15.8039 23.8586L18.1984 16.7434L23.3979 2.78677H30.992L30.9236 3.19726L29.3501 9.21779L24.0821 48.488V53.6876L24.0137 54.0981H15.9407L16.0091 53.6876L17.309 48.488L22.4401 10.1756L19.9772 17.2908L13.2725 35.2155H10.9464Z" fill="#DE2053"/>
<path d="M51.6635 39.5097C53.3582 49.4732 57.2207 56.4424 61.7216 56.4424C66.2224 56.4424 70.0849 49.4732 71.7796 39.5097H51.6635ZM87.9056 19.7548H74.9393C75.2752 22.5637 75.4437 25.3912 75.4437 28.2212C75.4437 31.0512 75.2752 33.8787 74.9393 36.6876H87.9056C89.586 31.1757 89.586 25.2667 87.9056 19.7548ZM86.8671 16.9327C85.1886 12.996 82.6588 9.50502 79.47 6.72568C76.2813 3.94634 72.5179 1.95192 68.4663 0.89433C71.7615 5.63462 73.8486 11.1489 74.5364 16.9327H86.8671ZM50.7439 28.2212C50.7406 31.0512 50.909 33.879 51.248 36.6876H72.1951C72.534 33.879 72.7026 31.0512 72.6993 28.2212C72.7026 25.3912 72.534 22.5634 72.1951 19.7548H51.248C50.909 22.5634 50.7406 25.3912 50.7439 28.2212ZM68.4663 55.5481C72.5179 54.4904 76.2813 52.496 79.47 49.7167C82.6588 46.9375 85.1886 43.4466 86.8671 39.5097H74.5364C73.8486 45.2936 71.7615 50.8078 68.4663 55.5481ZM47.9995 28.2212C47.9994 25.3912 48.1679 22.5637 48.5039 19.7548H35.5376C33.8573 25.2667 33.8573 31.1757 35.5376 36.6876H48.5039C48.1679 33.8787 47.9994 31.0512 47.9995 28.2212ZM36.5761 39.5097C38.2545 43.4466 40.7843 46.9375 43.9731 49.7167C47.1618 52.496 50.9253 54.4904 54.9769 55.5481C51.6815 50.8078 49.5945 45.2936 48.9068 39.5097H36.5761ZM54.9769 0.89433C50.9253 1.95206 47.1619 3.94651 43.9732 6.72585C40.7845 9.50519 38.2546 12.9961 36.5761 16.9327H48.9068C49.5945 11.1489 51.6815 5.63462 54.9769 0.89433ZM71.7796 16.9327C70.0849 6.97064 66.2224 0 61.7216 0C57.2207 0 53.3582 6.97064 51.6635 16.9327H71.7796Z" fill="#DE2053"/>
</svg>
