<svg width="1150" height="392" viewBox="0 0 1150 392" fill="none" xmlns="http://www.w3.org/2000/svg">
<g filter="url(#filter0_d_391_534)">
<path d="M524.699 360.672H458.603L459.035 358.08L470.267 325.248L519.515 72.096L519.947 39.264V36.672H581.723C620.171 36.672 641.339 69.936 641.339 105.36C641.339 135.168 627.083 165.408 604.187 185.28L605.051 325.248L611.099 358.08L610.667 360.672H553.211V208.608C551.483 208.608 549.755 208.608 547.595 209.04L525.131 325.248V358.08L524.699 360.672ZM582.155 40.128H580.427L548.891 203.424C553.211 204.72 558.395 205.584 559.691 205.584C570.059 205.584 589.931 110.976 589.931 58.272C589.931 44.448 588.203 40.128 582.155 40.128ZM747.986 213.36C747.986 288.096 692.258 365.424 654.242 365.424C626.594 365.424 613.202 315.312 613.202 279.456C613.202 205.152 668.93 127.824 706.946 127.824C734.594 127.824 747.986 177.936 747.986 213.36ZM656.402 360.672C667.634 360.672 706.946 180.528 706.946 140.784C706.946 134.736 706.082 132.576 704.786 132.576C693.554 132.576 654.242 312.72 654.242 352.464C654.242 358.512 655.106 360.672 656.402 360.672ZM811.183 324.384C811.183 308.832 817.663 287.232 825.871 252.24L839.695 199.536L814.639 273.408C794.767 331.728 780.511 365.424 769.279 365.424C747.247 365.424 730.399 347.28 730.399 312.72C730.399 247.92 814.207 127.824 845.743 127.824C848.767 127.824 853.087 128.256 857.839 128.688L880.735 41.424L881.599 14.64L942.511 5.99998L937.759 24.576L879.007 252.24C869.935 288.096 861.295 321.36 861.295 334.752C861.295 336.912 862.159 337.776 863.023 337.776C864.751 337.776 872.095 326.112 878.575 308.4L880.735 308.832C871.663 337.776 859.135 365.424 846.607 365.424C832.351 365.424 811.183 344.256 811.183 324.384ZM784.399 326.976C784.399 330 784.831 331.296 786.127 331.296C788.719 331.296 796.063 314.016 810.751 270.384L853.087 145.104C849.631 135.6 846.607 132.144 845.311 132.144C836.671 132.144 784.399 297.168 784.399 326.976ZM978.61 294.144L980.77 295.44C969.538 329.568 951.394 365.424 918.994 365.424C892.642 365.424 880.114 342.096 880.114 307.104C880.114 225.024 950.962 127.824 994.594 127.824C1009.28 127.824 1017.06 139.92 1017.06 157.632C1017.06 187.008 992.866 229.776 939.73 242.736C936.274 258.288 934.114 273.408 934.114 285.936C934.114 310.128 941.89 320.928 951.826 320.928C964.354 320.928 971.698 309.696 978.61 294.144ZM982.498 132.576C975.586 132.576 951.394 188.304 940.162 239.712C969.538 220.272 984.658 157.2 984.658 138.192C984.658 135.168 984.226 132.576 982.498 132.576ZM1123.27 213.36C1123.27 288.096 1067.54 365.424 1029.52 365.424C1001.88 365.424 988.485 315.312 988.485 279.456C988.485 205.152 1044.21 127.824 1082.23 127.824C1109.88 127.824 1123.27 177.936 1123.27 213.36ZM1031.68 360.672C1042.92 360.672 1082.23 180.528 1082.23 140.784C1082.23 134.736 1081.36 132.576 1080.07 132.576C1068.84 132.576 1029.52 312.72 1029.52 352.464C1029.52 358.512 1030.39 360.672 1031.68 360.672Z" fill="#DE2053"/>
</g>
<path opacity="0.9" d="M70.2405 361.779H20.1945L0.000453104 35.1627H44.3395L48.7295 263.443L56.6315 35.1627H96.5805L104.482 258.614L109.311 35.1627H150.577L130.383 361.779H81.6545L75.9475 169.058L70.2405 361.779ZM191.123 258.175L185.855 120.329L180.587 258.175H191.123ZM195.074 361.779L192.44 295.49H178.831L176.197 361.779H139.321L159.954 35.1627H214.39L236.34 361.779H195.074ZM238.446 35.1627H280.59L281.029 321.83H307.369V361.779H238.446V35.1627ZM312.613 35.1627H354.757L355.196 321.83H381.536V361.779H312.613V35.1627Z" fill="white"/>
<path opacity="0.9" d="M409.696 198.874C395.68 198.874 388.672 192.085 388.672 179.164V128.356H409.696V177.631C409.696 179.821 410.134 181.135 411.886 181.135C413.638 181.135 414.295 179.821 414.295 177.631V135.364C414.295 130.984 413.638 129.232 410.572 126.166L398.965 114.778C391.957 108.208 389.329 100.981 389.329 90.9067V53.8957C389.329 41.6317 395.242 33.7477 410.572 33.7477H415.39C430.939 33.7477 435.538 41.6317 435.538 52.1437V95.9437H415.171V53.0197C415.171 51.2677 414.514 50.3917 412.981 50.3917C411.448 50.3917 410.791 51.2677 410.791 53.0197V90.0307C410.791 94.1917 411.448 95.5057 414.076 98.3527L425.464 109.741C433.786 117.187 436.414 123.1 436.414 134.488V176.536C436.414 190.333 429.406 198.874 414.514 198.874H409.696ZM446.851 197.779V54.3337H437.434V34.8427H477.511V54.3337H467.875V197.779H446.851Z" fill="white"/>
<defs>
<filter id="filter0_d_391_534" x="452.604" y="0" width="696.665" height="391.424" filterUnits="userSpaceOnUse" color-interpolation-filters="sRGB">
<feFlood flood-opacity="0" result="BackgroundImageFix"/>
<feColorMatrix in="SourceAlpha" type="matrix" values="0 0 0 0 0 0 0 0 0 0 0 0 0 0 0 0 0 0 127 0" result="hardAlpha"/>
<feOffset dx="10" dy="10"/>
<feGaussianBlur stdDeviation="8"/>
<feComposite in2="hardAlpha" operator="out"/>
<feColorMatrix type="matrix" values="0 0 0 0 0 0 0 0 0 0 0 0 0 0 0 0 0 0 0.3 0"/>
<feBlend mode="normal" in2="BackgroundImageFix" result="effect1_dropShadow_391_534"/>
<feBlend mode="normal" in="SourceGraphic" in2="effect1_dropShadow_391_534" result="shape"/>
</filter>
</defs>
</svg>
