<svg width="810" height="145" viewBox="0 0 810 145" fill="none" xmlns="http://www.w3.org/2000/svg">
<path d="M32.032 144.32C11.088 144.32 -3.85642e-05 133.232 -3.85642e-05 112.288V103.664H14.08V113.52C14.08 124.08 20.24 130.592 30.8 130.592H43.12C53.68 130.592 59.84 124.08 59.84 113.52V85.3601C59.84 74.8001 53.68 68.2881 43.12 68.2881H21.12V54.5601L56.144 15.8401H3.51996V1.76006H73.92V15.8401L38.896 54.5601H41.888C62.832 54.5601 73.92 65.6481 73.92 86.5921V112.288C73.92 133.232 62.832 144.32 41.888 144.32H32.032ZM114.448 142.56H96.8481V124.96H114.448V142.56ZM147.84 30.8V40.4801H133.76V32.0321C133.76 11.0881 144.848 4.76837e-05 165.792 4.76837e-05H175.648C196.592 4.76837e-05 207.68 11.0881 207.68 32.0321V46.4641C207.68 57.5521 207.328 62.6561 197.12 74.8001L151.888 128.48H209.44V142.56H133.76V128.48L188.32 63.7121C193.072 58.0801 193.6 53.5041 193.6 49.4561V30.8C193.6 20.24 187.44 13.728 176.88 13.728H164.56C154 13.728 147.84 20.24 147.84 30.8ZM294.931 142.56V15.8401H264.131V1.76006H339.811V15.8401H309.011V142.56H294.931ZM398.853 130.592C409.413 130.592 415.573 124.08 415.573 113.52V30.8C415.573 20.24 409.413 13.728 398.853 13.728H386.533C375.973 13.728 369.813 20.24 369.813 30.8V113.52C369.813 124.08 375.973 130.592 386.533 130.592H398.853ZM355.733 112.288V32.0321C355.733 11.0881 366.821 4.76837e-05 387.765 4.76837e-05H397.621C418.565 4.76837e-05 429.653 11.0881 429.653 32.0321V112.288C429.653 133.232 418.565 144.32 397.621 144.32H387.765C366.821 144.32 355.733 133.232 355.733 112.288ZM512.297 142.56V108.592L475.337 31.1521L470.057 15.8401V142.56H455.977V1.76006H475.337L508.425 70.5761L512.121 81.3121H512.297V1.76006H526.377V142.56H512.297ZM610.782 142.56V108.592L573.822 31.1521L568.542 15.8401V142.56H554.462V1.76006H573.822L606.91 70.5761L610.606 81.3121H610.782V1.76006H624.862V142.56H610.782ZM652.946 1.76006H716.306V15.8401H667.026V65.1201H712.786V79.2001H667.026V128.48H716.306V142.56H652.946V1.76006ZM767.698 144.32C746.754 144.32 735.666 133.232 735.666 112.288V100.672H749.746V113.52C749.746 124.08 755.906 130.592 766.466 130.592H778.786C789.346 130.592 795.506 124.08 795.506 113.52V101.552C795.506 70.5761 737.426 79.3761 737.426 38.3681V32.0321C737.426 11.0881 748.514 4.76837e-05 769.458 4.76837e-05H775.794C796.738 4.76837e-05 807.826 11.0881 807.826 32.0321V41.0081H793.746V30.8C793.746 20.24 787.586 13.728 777.026 13.728H768.226C757.666 13.728 751.506 20.24 751.506 30.8V39.2481C751.506 66.7041 809.586 57.9041 809.586 98.9121V112.288C809.586 133.232 798.498 144.32 777.554 144.32H767.698Z" fill="#61E26B"/>
</svg>
