<svg width="830" height="39" viewBox="0 0 830 39" fill="none" xmlns="http://www.w3.org/2000/svg">
<path d="M829.707 19.2929C830.098 19.6835 830.098 20.3166 829.707 20.7071L823.343 27.0711C822.953 27.4616 822.319 27.4616 821.929 27.0711C821.538 26.6806 821.538 26.0474 821.929 25.6569L827.586 20L821.929 14.3432C821.538 13.9527 821.538 13.3195 821.929 12.929C822.319 12.5384 822.953 12.5384 823.343 12.929L829.707 19.2929ZM489 20V19L829 19V20V21L489 21V20Z" fill="#61E26B"/>
<path d="M0.292877 19.293C-0.0976258 19.6835 -0.0976257 20.3166 0.292877 20.7072L6.65683 27.0711C7.04736 27.4617 7.68054 27.4617 8.07105 27.0711C8.46158 26.6806 8.46158 26.0474 8.07105 25.6569L2.41422 20.0001L8.07104 14.3432C8.46158 13.9527 8.46158 13.3195 8.07104 12.929C7.68054 12.5385 7.04736 12.5385 6.65683 12.929L0.292877 19.293ZM341 20L341 19L1 19.0001L1 20.0001L1 21.0001L341 21L341 20Z" fill="#61E26B"/>
<rect x="474.5" y="0.500036" width="38" height="117" rx="19" transform="rotate(90 474.5 0.500036)" fill="#61E26B"/>
<rect x="474.5" y="0.500036" width="38" height="117" rx="19" transform="rotate(90 474.5 0.500036)" stroke="#61E26B"/>
<text transform="translate(370 9.00004)" fill="black" style="white-space: pre" xml:space="preserve" font-family="Space Mono" font-size="30" letter-spacing="0em"><tspan x="0.154297" y="21">4.9 m</tspan></text>
</svg>
