<svg width="22" height="527" viewBox="0 0 22 527" fill="none" xmlns="http://www.w3.org/2000/svg">
<path d="M11.0976 0.292892C11.4881 -0.0976257 12.1213 -0.0976257 12.5118 0.292892L18.8758 6.65686C19.2663 7.04738 19.2663 7.68054 18.8758 8.07108C18.4852 8.46159 17.8521 8.46159 17.4615 8.07108L11.8047 2.41422L6.14784 8.07108C5.75732 8.46159 5.12415 8.46159 4.73363 8.07108C4.3431 7.68054 4.3431 7.04738 4.73363 6.65686L11.0976 0.292892ZM11.8047 196L10.8047 196L10.8047 1L11.8047 1L12.8047 1L12.8047 196L11.8047 196Z" fill="#61E26B"/>
<path d="M12.5118 526.707C12.1213 527.098 11.4881 527.098 11.0976 526.707L4.73362 520.343C4.3431 519.953 4.3431 519.319 4.73362 518.929C5.12414 518.538 5.75731 518.538 6.14783 518.929L11.8047 524.586L17.4615 518.929C17.8521 518.538 18.4852 518.538 18.8758 518.929C19.2663 519.319 19.2663 519.953 18.8758 520.343L12.5118 526.707ZM11.8047 526L10.8047 526L10.8047 331L11.8047 331L12.8047 331L12.8047 526L11.8047 526Z" fill="#61E26B"/>
<text transform="matrix(0 -1 1 0 0 309)" fill="#61E26B" style="white-space: pre" xml:space="preserve" font-family="Space Mono" font-size="30" letter-spacing="0em"><tspan x="0.154297" y="21">3.4 m</tspan></text>
</svg>
