<svg width="74" height="116" viewBox="0 0 74 116" fill="none" xmlns="http://www.w3.org/2000/svg">
<text fill="#61E26B" style="white-space: pre" xml:space="preserve" font-family="Space Mono" font-size="30" letter-spacing="0em"><tspan x="0" y="29.385">5 cm</tspan></text>
<path d="M37.2929 77.7071C37.6834 78.0976 38.3166 78.0976 38.7071 77.7071L45.0711 71.3431C45.4616 70.9526 45.4616 70.3195 45.0711 69.9289C44.6805 69.5384 44.0474 69.5384 43.6569 69.9289L38 75.5858L32.3431 69.9289C31.9526 69.5384 31.3195 69.5384 30.9289 69.9289C30.5384 70.3195 30.5384 70.9526 30.9289 71.3431L37.2929 77.7071ZM38 77H39V45H38H37V77H38Z" fill="#61E26B"/>
<path d="M38.7071 83.2929C38.3166 82.9024 37.6834 82.9024 37.2929 83.2929L30.9289 89.6569C30.5384 90.0474 30.5384 90.6805 30.9289 91.0711C31.3195 91.4616 31.9526 91.4616 32.3431 91.0711L38 85.4142L43.6569 91.0711C44.0474 91.4616 44.6805 91.4616 45.0711 91.0711C45.4616 90.6805 45.4616 90.0474 45.0711 89.6569L38.7071 83.2929ZM38 84L37 84L37 116L38 116L39 116L39 84L38 84Z" fill="#61E26B"/>
</svg>
