<svg width="172" height="149" viewBox="0 0 172 149" fill="none" xmlns="http://www.w3.org/2000/svg">
<path d="M32.9418 148.42C11.4028 148.42 -0.000233863 137.017 -0.000233863 115.478V106.609H14.4798V116.745C14.4798 127.605 20.8148 134.302 31.6748 134.302H44.3448C55.2048 134.302 61.5398 127.605 61.5398 116.745V87.7849C61.5398 76.9249 55.2048 70.2279 44.3448 70.2279H21.7198V56.1099L57.7388 16.2899H3.61977V1.80986H76.0198V16.2899L40.0008 56.1099H43.0778C64.6168 56.1099 76.0198 67.5129 76.0198 89.0519V115.478C76.0198 137.017 64.6168 148.42 43.0778 148.42H32.9418ZM127.111 93.2149V55.2049H140.867V93.2149H127.111ZM95.9793 115.478V32.9419C95.9793 11.4029 107.382 -0.000147939 128.921 -0.000147939H139.057C160.596 -0.000147939 171.999 11.4029 171.999 32.9419V115.478C171.999 137.017 160.596 148.42 139.057 148.42H128.921C107.382 148.42 95.9793 137.017 95.9793 115.478ZM110.459 116.745C110.459 127.605 116.794 134.302 127.654 134.302H140.324C151.184 134.302 157.519 127.605 157.519 116.745V31.6749C157.519 20.8149 151.184 14.1179 140.324 14.1179H127.654C116.794 14.1179 110.459 20.8149 110.459 31.6749V116.745Z" fill="#61E26B"/>
</svg>
