<svg width="402" height="222" viewBox="0 0 402 222" fill="none" xmlns="http://www.w3.org/2000/svg">
<path d="M22.4601 114.423C29.6019 114.423 35.9674 107.126 46.5248 88.9613L91.8595 10.8676C85.494 6.36515 76.3339 1.24171 68.8816 1.24171C51.6482 1.24171 42.1776 28.5667 42.1776 34.156C42.1776 35.0875 52.4245 36.7953 57.8585 36.9506V37.4163C55.6849 40.3662 49.0089 47.0422 46.5248 44.8686C43.5749 42.3845 36.1226 25.9274 36.1226 18.0093C36.1226 8.38348 52.735 -0.000343467 74.1603 -0.000343467C80.5258 -0.000343467 93.412 0.775935 102.262 1.55221L82.0784 105.263V117.063L81.9231 117.994H58.169L58.3242 117.063L62.3609 105.263L68.4159 73.7462H56.9269L48.0773 89.1165C35.5016 111.008 27.273 119.702 14.3868 119.702C3.51889 119.702 -3.9334 113.336 -3.9334 102.934C-3.9334 93.7742 1.65582 84.9246 19.0445 77.7829L19.5102 78.2486C14.3868 83.2168 11.7475 91.4454 11.7475 98.7424C11.7475 107.126 15.1631 114.423 22.4601 114.423ZM68.5711 53.5629L57.7032 72.5042H68.7264L72.2973 53.5629L74.1603 43.7818L68.5711 53.5629ZM115.896 104.953C115.896 99.5187 131.732 58.9969 131.732 51.2341C131.732 50.6131 131.111 49.6815 130.801 49.6815C129.404 49.6815 125.988 59.7732 115.43 90.2033L105.805 117.994H85.6214L85.7766 117.063L90.279 105.574C100.836 65.0519 106.115 48.4395 106.115 44.4028C106.115 43.7818 105.96 43.6266 105.805 43.6266C105.028 43.6266 103.476 45.1791 100.526 53.7182L99.7496 53.5629C102.7 42.074 107.202 34.3112 112.17 34.3112C116.207 34.3112 123.038 43.6266 123.038 50.1473C123.038 55.426 118.225 71.1069 111.394 96.5688L114.188 88.806C126.454 54.184 133.44 34.156 136.856 34.156C145.55 34.156 151.916 43.0055 151.916 48.9053C151.916 57.1338 133.906 102.313 133.906 108.679C133.906 109.455 134.216 109.766 134.527 109.766C135.303 109.766 137.787 105.574 140.116 99.2082L140.892 99.3634C138.253 109.766 133.13 119.702 128.627 119.702C123.659 119.702 115.896 112.094 115.896 104.953ZM186.185 108.679C186.185 109.455 186.495 109.766 186.806 109.766C187.582 109.766 190.066 105.574 192.395 99.2082L193.171 99.3634C190.532 109.766 185.408 119.702 180.906 119.702C175.938 119.702 169.417 111.784 169.417 104.797C169.417 101.537 172.212 88.806 175.162 77.1618L171.746 86.6324C164.294 107.592 158.239 119.702 153.27 119.702C147.681 119.702 142.868 113.181 142.868 102.934C142.868 77.4724 172.988 34.3112 184.322 34.3112C187.272 34.3112 193.482 35.0875 197.984 35.8638L206.523 33.3797L207.3 33.8454L197.518 61.481C195.5 67.3807 186.185 101.692 186.185 108.679ZM161.965 102.313C161.965 103.711 162.12 104.176 162.431 104.176C162.896 104.176 165.691 98.2766 170.193 85.7009L186.806 38.9689C185.719 37.2611 184.322 35.8638 184.166 35.8638C181.061 35.8638 161.965 86.6324 161.965 102.313ZM198.104 102.003C198.104 98.5872 209.748 59.4627 213.009 47.8185H208.351L208.506 47.1975L238.937 21.425H239.558C238.316 25.3064 237.073 30.1193 235.521 35.7085H241.576L238.16 47.8185H231.795C227.448 62.723 215.182 101.848 215.182 108.679C215.182 109.3 215.493 109.455 215.803 109.455C216.89 109.455 220.151 106.195 223.566 101.382L224.187 101.848C219.53 111.784 214.717 119.702 210.059 119.702C205.557 119.702 198.104 110.231 198.104 102.003ZM278.597 65.0519C278.597 91.9111 258.569 119.702 244.907 119.702C234.97 119.702 230.157 101.692 230.157 88.806C230.157 62.102 250.185 34.3112 263.848 34.3112C273.784 34.3112 278.597 52.3209 278.597 65.0519ZM245.683 117.994C249.72 117.994 263.848 53.2524 263.848 38.9689C263.848 36.7953 263.537 36.019 263.072 36.019C259.035 36.019 244.907 100.761 244.907 115.044C244.907 117.218 245.217 117.994 245.683 117.994ZM314.077 117.994H294.98C302.898 92.5322 315.94 58.5311 315.94 51.2341C315.94 50.9236 315.474 50.3026 315.319 50.3026C313.766 50.3026 310.972 60.3942 300.104 90.2033L290.012 117.994H269.829L269.984 117.063L274.486 105.574C285.975 64.5861 290.323 48.4395 290.323 44.4028C290.323 43.7818 290.167 43.6266 290.012 43.6266C289.236 43.6266 287.683 45.1791 284.733 53.7182L283.957 53.5629C286.907 42.074 291.409 34.3112 296.378 34.3112C300.259 34.3112 307.245 43.6266 307.245 50.1473C307.245 55.1155 303.054 68.9333 294.825 99.6739L298.862 88.806C311.748 54.3392 317.648 34.156 321.063 34.156C328.826 34.156 334.571 43.0055 334.571 48.9053C334.571 50.7683 330.379 63.6546 319.821 95.9478H319.976C335.192 54.805 342.333 34.156 345.749 34.156C354.288 34.156 360.498 43.0055 360.498 48.9053C360.498 56.9786 342.489 102.313 342.489 108.679C342.489 109.455 342.799 109.766 343.11 109.766C343.886 109.766 346.37 105.574 348.699 99.2082L349.475 99.3634C346.836 109.766 341.712 119.702 337.21 119.702C332.242 119.702 324.479 112.094 324.479 104.953C324.479 99.5187 340.315 59.1522 340.315 50.9236C340.315 50.6131 340.004 50.4578 339.539 50.4578C338.141 50.4578 334.571 60.86 324.013 90.2033L314.077 117.994ZM366.864 63.8098C367.795 49.2158 367.951 43.6266 367.174 43.6266C366.398 43.6266 364.69 47.3527 362.051 53.7182L361.275 53.5629C364.38 41.9188 368.416 34.3112 372.453 34.3112C376.49 34.3112 384.718 41.453 385.184 48.5948C385.339 51.5446 384.873 57.7549 384.408 65.5176L381.924 99.5187C386.426 88.0298 391.239 73.7462 395.586 57.2891L390.928 36.3295L391.239 35.7085H404.28L404.125 36.3295L397.139 57.7549C389.531 85.8562 380.526 108.213 373.074 120.012C356.927 146.716 340.16 156.808 328.205 156.808C324.789 156.808 321.84 156.032 321.219 155.721L326.031 139.109H326.497C328.05 140.196 332.863 141.904 338.607 141.904C344.041 141.904 353.046 140.817 362.517 131.967L366.864 63.8098Z" fill="#61E26B"/>
<path d="M140.692 207.656C141.953 207.656 142.269 206.552 142.269 205.133V165.546H157.252V205.448C157.252 213.965 152.836 221.062 142.111 221.062H139.588C128.074 221.062 123.501 214.911 123.501 204.187V118.547C123.501 108.927 127.917 102.145 139.588 102.145H142.111C152.836 102.145 157.252 108.138 157.252 117.128V153.245H142.269V117.601C142.269 116.024 141.953 115.235 140.692 115.235C139.43 115.235 139.114 116.024 139.114 117.601V205.133C139.114 206.71 139.43 207.656 140.692 207.656ZM176.266 114.762V153.087H177.37C178.632 153.087 179.105 152.456 179.105 151.037V116.813C179.105 115.393 178.947 114.762 177.528 114.762H176.266ZM176.266 166.335V220.273H160.81V102.934H184.783C190.145 102.934 194.246 106.561 194.246 113.816V147.725C194.246 153.876 191.249 156.399 188.883 157.503C191.407 158.449 194.561 161.13 194.561 166.02V216.015C194.561 217.75 194.876 219.012 195.192 219.958V220.273H180.209C179.578 219.643 179.105 218.223 179.105 216.488V168.385C179.105 167.281 178.947 166.335 177.37 166.335H176.266ZM213.729 102.934V220.273H198.273V102.934H213.729ZM232.388 221.062C222.294 221.062 217.247 216.173 217.247 206.868V170.278H232.388V205.764C232.388 207.341 232.703 208.287 233.965 208.287C235.227 208.287 235.7 207.341 235.7 205.764V175.325C235.7 172.17 235.227 170.909 233.019 168.701L224.66 160.5C219.613 155.768 217.72 150.564 217.72 143.309V116.655C217.72 107.823 221.979 102.145 233.019 102.145H236.488C247.686 102.145 250.998 107.823 250.998 115.393V146.936H236.331V116.024C236.331 114.762 235.858 114.131 234.754 114.131C233.65 114.131 233.176 114.762 233.176 116.024V142.678C233.176 145.674 233.65 146.621 235.542 148.671L243.743 156.872C249.736 162.234 251.629 166.493 251.629 174.694V204.975C251.629 214.911 246.582 221.062 235.858 221.062H232.388ZM270.482 102.934V220.273H255.026V102.934H270.482ZM289.14 221.062C279.047 221.062 274 216.173 274 206.868V170.278H289.14V205.764C289.14 207.341 289.456 208.287 290.718 208.287C291.979 208.287 292.452 207.341 292.452 205.764V175.325C292.452 172.17 291.979 170.909 289.771 168.701L281.412 160.5C276.366 155.768 274.473 150.564 274.473 143.309V116.655C274.473 107.823 278.731 102.145 289.771 102.145H293.241C304.439 102.145 307.751 107.823 307.751 115.393V146.936H293.083V116.024C293.083 114.762 292.61 114.131 291.506 114.131C290.402 114.131 289.929 114.762 289.929 116.024V142.678C289.929 145.674 290.402 146.621 292.295 148.671L300.496 156.872C306.489 162.234 308.382 166.493 308.382 174.694V204.975C308.382 214.911 303.335 221.062 292.61 221.062H289.14Z" fill="#DE2053"/>
<path d="M74.5604 163.44C74.5604 173.301 67.2074 183.504 62.1914 183.504C58.5434 183.504 56.7764 176.892 56.7764 172.161C56.7764 162.357 64.1294 152.154 69.1454 152.154C72.7934 152.154 74.5604 158.766 74.5604 163.44ZM62.4764 182.877C63.9584 182.877 69.1454 159.108 69.1454 153.864C69.1454 153.066 69.0314 152.781 68.8604 152.781C67.3784 152.781 62.1914 176.55 62.1914 181.794C62.1914 182.592 62.3054 182.877 62.4764 182.877ZM76.2566 157.113L76.3136 156.885L78.8786 152.781L80.3036 146.055C81.6146 139.785 85.2626 135.852 90.3926 135.852C91.5896 135.852 92.2166 136.08 92.4446 136.251L91.3046 142.293H91.0766C90.0506 139.557 88.1696 137.163 86.8016 137.163C85.9466 137.163 85.5476 137.676 85.5476 138.645C85.5476 140.754 87.5996 144.231 86.4026 149.931L85.8326 152.667H88.6826L87.2576 157.113H84.9206L77.1116 194.277H70.0436L77.9666 157.113H76.2566ZM104.535 179.457C104.535 179.742 104.649 179.856 104.763 179.856C105.048 179.856 105.96 178.317 106.815 175.98L107.1 176.037C106.131 179.856 104.25 183.504 102.597 183.504C100.773 183.504 98.3788 180.597 98.3788 178.032C98.3788 176.835 99.4048 172.161 100.488 167.886L99.2338 171.363C96.4978 179.058 94.2748 183.504 92.4508 183.504C90.3988 183.504 88.6318 181.11 88.6318 177.348C88.6318 168 99.6898 152.154 103.851 152.154C104.934 152.154 107.214 152.439 108.867 152.724L112.002 151.812L112.287 151.983L108.696 162.129C107.955 164.295 104.535 176.892 104.535 179.457ZM95.6428 177.12C95.6428 177.633 95.6998 177.804 95.8138 177.804C95.9848 177.804 97.0108 175.638 98.6638 171.021L104.763 153.864C104.364 153.237 103.851 152.724 103.794 152.724C102.654 152.724 95.6428 171.363 95.6428 177.12Z" fill="#DE2053"/>
</svg>
