<svg width="333" height="342" viewBox="0 0 333 342" fill="none" xmlns="http://www.w3.org/2000/svg">
<path d="M55.659 177.513V1.18469H90.498C99.978 1.18469 105.903 6.16168 105.903 18.2487V68.2557C105.903 77.0247 100.215 81.2907 96.897 82.2387C100.926 83.4237 107.562 87.4527 107.562 98.3547V157.131C107.562 170.403 101.637 177.513 90.261 177.513H55.659ZM80.544 18.9597H78.885V75.8397H80.544C82.44 75.8397 83.388 74.8917 83.388 72.5217V22.2777C83.388 19.9077 82.914 18.9597 80.544 18.9597ZM81.018 93.1407H78.885V159.264H81.018C83.388 159.264 83.625 158.316 83.625 155.709V96.9327C83.625 94.3257 83.151 93.1407 81.018 93.1407ZM110.512 1.18469H149.143V22.2777H133.264V73.7067H147.01V95.5107H133.264V156.183H149.617V177.513H110.512V1.18469ZM178.699 121.581L175.855 47.1627L173.011 121.581H178.699ZM180.832 177.513L179.41 141.726H172.063L170.641 177.513H150.733L161.872 1.18469H191.26L203.11 177.513H180.832ZM227.473 18.9597V76.5507H229.132C231.028 76.5507 231.739 75.6027 231.739 73.4697V22.0407C231.739 19.9077 231.502 18.9597 229.369 18.9597H227.473ZM227.473 96.4587V177.513H204.247V1.18469H240.271C248.329 1.18469 254.491 6.63569 254.491 17.5377V68.4927C254.491 77.7357 249.988 81.5277 246.433 83.1867C250.225 84.6087 254.965 88.6377 254.965 95.9847V171.114C254.965 173.721 255.439 175.617 255.913 177.039V177.513H233.398C232.45 176.565 231.739 174.432 231.739 171.825V99.5397C231.739 97.8807 231.502 96.4587 229.132 96.4587H227.473ZM280.452 178.698C265.284 178.698 257.7 171.351 257.7 157.368V102.384H280.452V155.709C280.452 158.079 280.926 159.501 282.822 159.501C284.718 159.501 285.429 158.079 285.429 155.709V109.968C285.429 105.228 284.718 103.332 281.4 100.014L268.839 87.6897C261.255 80.5797 258.411 72.7587 258.411 61.8567V21.8037C258.411 8.53168 264.81 -0.000307739 281.4 -0.000307739H286.614C303.441 -0.000307739 308.418 8.53168 308.418 19.9077V67.3077H286.377V20.8557C286.377 18.9597 285.666 18.0117 284.007 18.0117C282.348 18.0117 281.637 18.9597 281.637 20.8557V60.9087C281.637 65.4117 282.348 66.8337 285.192 69.9147L297.516 82.2387C306.522 90.2967 309.366 96.6957 309.366 109.02V154.524C309.366 169.455 301.782 178.698 285.666 178.698H280.452Z" fill="#DE2053"/>
<path d="M26.741 339.513L26.962 338.187L33.15 321.391L61.217 177.52C37.128 185.255 23.647 213.322 23.647 220.173C23.647 221.499 38.233 223.93 45.968 224.151V224.814C42.874 229.013 33.371 238.516 29.835 235.422C25.636 231.886 15.028 208.46 15.028 197.189C15.028 184.592 43.095 173.763 74.477 173.763H81.991C114.478 173.763 121.992 188.128 121.992 202.051C121.992 222.383 106.08 244.262 83.317 248.019C103.428 250.229 110.721 264.594 110.721 281.832C110.721 311.667 89.284 339.513 62.322 339.513H26.741ZM96.798 190.117C96.798 181.277 95.03 177.52 89.505 176.194L75.803 247.356H78.013C85.748 247.356 96.798 211.775 96.798 190.117ZM76.245 249.124H75.361L58.344 336.861C59.891 337.082 60.996 337.082 62.101 337.082C68.289 337.082 83.538 304.374 83.538 261.279C83.538 250.008 79.339 249.124 76.245 249.124ZM111.023 316.75C111.023 299.733 135.333 248.019 135.333 234.759C135.333 233.875 135.112 233.654 134.891 233.654C133.786 233.654 131.576 235.864 127.377 248.019L126.272 247.798C130.471 231.444 136.88 220.394 143.952 220.394C149.698 220.394 159.422 233.654 159.422 242.936C159.422 252.66 136.438 309.457 136.438 322.054C136.438 323.601 136.659 324.264 137.764 324.264C140.416 324.264 145.941 305.7 160.748 263.047L174.892 222.383H201.854C188.594 273.655 175.997 316.308 175.997 326.253C175.997 327.358 176.439 327.8 176.881 327.8C177.986 327.8 181.522 321.833 184.837 312.772L185.942 312.993C182.185 327.8 174.892 341.944 168.483 341.944C161.19 341.944 150.361 330.673 150.361 320.728C150.361 313.877 156.991 291.114 166.052 255.312L162.958 264.152C139.974 330.231 135.333 341.944 130.471 341.944C118.095 341.944 111.023 325.59 111.023 316.75ZM214.575 326.253C214.575 327.358 215.017 327.8 215.459 327.8C216.343 327.8 220.1 321.833 223.415 312.772L224.52 312.993C219.879 327.8 213.47 341.944 207.061 341.944C199.768 341.944 188.939 331.115 188.939 320.949C188.939 312.993 192.696 298.186 196.453 284.263L224.962 176.415L225.404 162.713L256.565 158.293L253.913 167.796L223.636 284.263C218.995 302.827 214.575 319.402 214.575 326.253ZM254.934 326.253C254.934 327.358 255.376 327.8 255.818 327.8C256.702 327.8 260.459 321.833 263.774 312.772L264.879 312.993C260.238 327.8 253.829 341.944 247.42 341.944C240.127 341.944 229.298 331.115 229.298 320.949C229.298 312.993 233.055 298.186 236.812 284.263L265.321 176.415L265.763 162.713L296.924 158.293L294.272 167.796L263.995 284.263C259.354 302.827 254.934 319.402 254.934 326.253ZM281.226 341.944C272.386 341.944 264.651 338.408 261.557 335.093L268.629 311.225L269.734 311.446C273.933 327.137 278.353 339.513 281.668 339.513C284.541 339.513 289.403 330.01 289.403 308.352C289.403 288.904 284.983 272.329 284.983 258.185C284.983 230.339 301.779 220.394 316.807 220.394C324.984 220.394 330.73 223.267 332.056 224.814L325.647 247.577H324.984C321.006 231.002 318.354 222.825 314.376 222.825C311.503 222.825 308.63 227.245 308.63 240.505C308.63 258.848 314.155 279.18 314.155 297.523C314.155 327.137 299.569 341.944 281.226 341.944Z" fill="#61E26B"/>
<path d="M150.841 167.56L155.528 155.243H171.442C166.864 166.906 156.509 195.137 156.509 202.549C156.509 203.857 157.163 204.511 157.817 204.511C160.869 204.511 167.736 188.597 173.622 167.342L172.314 155.679L172.641 155.243H179.399L179.29 155.679L174.712 167.451C164.575 204.293 155.855 214.212 148.988 214.212C144.628 214.212 142.23 210.833 142.23 206.146C142.23 193.284 157.49 174.645 165.447 167.56H150.841ZM176.056 214.212C171.696 214.212 167.881 212.468 166.355 210.833L169.843 199.061L170.388 199.17C172.459 206.909 174.639 213.013 176.274 213.013C177.691 213.013 180.089 208.326 180.089 197.644C180.089 188.052 177.909 179.877 177.909 172.901C177.909 159.167 186.193 154.262 193.605 154.262C197.638 154.262 200.472 155.679 201.126 156.442L197.965 167.669H197.638C195.676 159.494 194.368 155.461 192.406 155.461C190.989 155.461 189.572 157.641 189.572 164.181C189.572 173.228 192.297 183.256 192.297 192.303C192.297 206.909 185.103 214.212 176.056 214.212Z" fill="white"/>
</svg>
