<svg width="344" height="186" viewBox="0 0 344 186" fill="none" xmlns="http://www.w3.org/2000/svg">
<path d="M34.1356 183.173H-8.97639e-05L0.223019 181.834L6.02386 164.878L31.4583 34.1357L31.6814 17.1794V15.8407H63.5861C83.4428 15.8407 94.3751 33.0202 94.3751 51.3151C94.3751 66.7097 87.0125 82.3273 75.1877 92.5903L75.634 164.878L78.7575 181.834L78.5344 183.173H48.8608V104.638C47.9684 104.638 47.076 104.638 45.9604 104.861L34.3587 164.878V181.834L34.1356 183.173ZM63.8092 17.6256H62.9167L46.6297 101.961C48.8608 102.63 51.5382 103.076 52.2075 103.076C57.5621 103.076 67.8251 54.2155 67.8251 26.9962C67.8251 19.8567 66.9327 17.6256 63.8092 17.6256ZM149.453 107.092C149.453 145.69 120.672 185.627 101.039 185.627C86.7598 185.627 79.8434 159.746 79.8434 141.228C79.8434 102.853 108.624 62.9168 128.258 62.9168C142.537 62.9168 149.453 88.7975 149.453 107.092ZM102.154 183.173C107.955 183.173 128.258 90.1361 128.258 69.6101C128.258 66.4866 127.812 65.371 127.143 65.371C121.342 65.371 101.039 158.408 101.039 178.934C101.039 182.057 101.485 183.173 102.154 183.173ZM182.092 164.432C182.092 156.4 185.439 145.244 189.678 127.172L196.817 99.9529L183.877 138.105C173.614 168.224 166.251 185.627 160.45 185.627C149.072 185.627 140.371 176.256 140.371 158.408C140.371 124.941 183.654 62.9168 199.941 62.9168C201.502 62.9168 203.734 63.1399 206.188 63.363L218.013 18.2949L218.459 4.46216L249.917 -1.90382e-05L247.463 9.59368L217.12 127.172C212.435 145.69 207.973 162.87 207.973 169.786C207.973 170.902 208.419 171.348 208.865 171.348C209.757 171.348 213.55 165.324 216.897 156.176L218.013 156.4C213.327 171.348 206.857 185.627 200.387 185.627C193.024 185.627 182.092 174.695 182.092 164.432ZM168.259 165.77C168.259 167.332 168.482 168.001 169.152 168.001C170.49 168.001 174.283 159.077 181.869 136.543L203.734 71.8412C201.949 66.9328 200.387 65.1479 199.718 65.1479C195.255 65.1479 168.259 150.376 168.259 165.77ZM268.561 148.814L269.676 149.483C263.875 167.109 254.505 185.627 237.772 185.627C224.162 185.627 217.692 173.579 217.692 155.507C217.692 113.116 254.282 62.9168 276.816 62.9168C284.401 62.9168 288.417 69.1639 288.417 78.3113C288.417 93.4828 275.923 115.571 248.481 122.264C246.696 130.296 245.58 138.105 245.58 144.575C245.58 157.069 249.596 162.647 254.728 162.647C261.198 162.647 264.991 156.846 268.561 148.814ZM270.569 65.371C266.999 65.371 254.505 94.1521 248.704 120.702C263.875 110.662 271.684 78.0882 271.684 68.2714C271.684 66.7097 271.461 65.371 270.569 65.371ZM343.271 107.092C343.271 145.69 314.49 185.627 294.856 185.627C280.577 185.627 273.661 159.746 273.661 141.228C273.661 102.853 302.442 62.9168 322.076 62.9168C336.355 62.9168 343.271 88.7975 343.271 107.092ZM295.972 183.173C301.773 183.173 322.076 90.1361 322.076 69.6101C322.076 66.4866 321.629 65.371 320.96 65.371C315.159 65.371 294.856 158.408 294.856 178.934C294.856 182.057 295.302 183.173 295.972 183.173Z" fill="#DE2053"/>
</svg>
