<svg width="338" height="350" viewBox="0 0 338 350" fill="none" xmlns="http://www.w3.org/2000/svg">
<path d="M27.1097 181.22L27.3307 179.894L33.5187 163.098L61.5857 19.2267C37.4967 26.9617 24.0157 55.0287 24.0157 61.8797C24.0157 63.2057 38.6017 65.6367 46.3367 65.8577V66.5207C43.2427 70.7197 33.7397 80.2227 30.2037 77.1287C26.0047 73.5927 15.3967 50.1667 15.3967 38.8957C15.3967 26.2987 43.4637 15.4697 74.8457 15.4697H82.3597C114.847 15.4697 122.361 29.8347 122.361 43.7577C122.361 64.0897 106.449 85.9687 83.6857 89.7257C103.797 91.9357 111.09 106.301 111.09 123.539C111.09 153.374 89.6527 181.22 62.6907 181.22H27.1097ZM97.1667 31.8237C97.1667 22.9837 95.3987 19.2267 89.8737 17.9007L76.1717 89.0627H78.3817C86.1167 89.0627 97.1667 53.4817 97.1667 31.8237ZM76.6137 90.8307H75.7297L58.7127 178.568C60.2597 178.789 61.3647 178.789 62.4697 178.789C68.6577 178.789 83.9067 146.081 83.9067 102.986C83.9067 91.7147 79.7077 90.8307 76.6137 90.8307ZM111.392 158.457C111.392 141.44 135.702 89.7257 135.702 76.4657C135.702 75.5817 135.481 75.3607 135.26 75.3607C134.155 75.3607 131.945 77.5707 127.746 89.7257L126.641 89.5047C130.84 73.1507 137.249 62.1007 144.321 62.1007C150.067 62.1007 159.791 75.3607 159.791 84.6427C159.791 94.3667 136.807 151.164 136.807 163.761C136.807 165.308 137.028 165.971 138.133 165.971C140.785 165.971 146.31 147.407 161.117 104.754L175.261 64.0897H202.223C188.963 115.362 176.366 158.015 176.366 167.96C176.366 169.065 176.808 169.507 177.25 169.507C178.355 169.507 181.891 163.54 185.206 154.479L186.311 154.7C182.554 169.507 175.261 183.651 168.852 183.651C161.559 183.651 150.73 172.38 150.73 162.435C150.73 155.584 157.36 132.821 166.421 97.0187L163.327 105.859C140.343 171.938 135.702 183.651 130.84 183.651C118.464 183.651 111.392 167.297 111.392 158.457ZM214.944 167.96C214.944 169.065 215.386 169.507 215.828 169.507C216.712 169.507 220.469 163.54 223.784 154.479L224.889 154.7C220.248 169.507 213.839 183.651 207.43 183.651C200.137 183.651 189.308 172.822 189.308 162.656C189.308 154.7 193.065 139.893 196.822 125.97L225.331 18.1217L225.773 4.41972L256.934 -0.000285029L254.282 9.50272L224.005 125.97C219.364 144.534 214.944 161.109 214.944 167.96ZM255.303 167.96C255.303 169.065 255.745 169.507 256.187 169.507C257.071 169.507 260.828 163.54 264.143 154.479L265.248 154.7C260.607 169.507 254.198 183.651 247.789 183.651C240.496 183.651 229.667 172.822 229.667 162.656C229.667 154.7 233.424 139.893 237.181 125.97L265.69 18.1217L266.132 4.41972L297.293 -0.000285029L294.641 9.50272L264.364 125.97C259.723 144.534 255.303 161.109 255.303 167.96ZM301.238 13.0387H301.459L315.603 28.0667C308.752 37.3487 296.376 51.2717 286.873 59.2277L285.768 58.5647C289.967 49.7247 298.807 24.5307 301.238 13.0387ZM286.558 183.651C277.718 183.651 269.983 180.115 266.889 176.8L273.961 152.932L275.066 153.153C279.265 168.844 283.685 181.22 287 181.22C289.873 181.22 294.735 171.717 294.735 150.059C294.735 130.611 290.315 114.036 290.315 99.8917C290.315 72.0457 307.111 62.1007 322.139 62.1007C330.316 62.1007 336.062 64.9737 337.388 66.5207L330.979 89.2837H330.316C326.338 72.7087 323.686 64.5317 319.708 64.5317C316.835 64.5317 313.962 68.9517 313.962 82.2117C313.962 100.555 319.487 120.887 319.487 139.23C319.487 168.844 304.901 183.651 286.558 183.651Z" fill="#BCA371"/>
<path d="M67.2827 190.098V247.689H68.9417C70.8377 247.689 71.5487 246.741 71.5487 244.608V193.179C71.5487 191.046 71.3117 190.098 69.1787 190.098H67.2827ZM67.2827 267.597V348.651H44.0567V172.323H80.0807C88.1387 172.323 94.3007 177.774 94.3007 188.676V239.631C94.3007 248.874 89.7977 252.666 86.2427 254.325C90.0347 255.747 94.7747 259.776 94.7747 267.123V342.252C94.7747 344.859 95.2487 346.755 95.7227 348.177V348.651H73.2077C72.2597 347.703 71.5487 345.57 71.5487 342.963V270.678C71.5487 269.019 71.3117 267.597 68.9417 267.597H67.2827ZM152.73 197.919V323.529C152.73 340.356 143.724 349.836 128.319 349.836H125.001C108.885 349.836 100.353 340.119 100.353 323.529V197.919C100.353 181.329 107.937 171.138 125.001 171.138H128.319C145.383 171.138 152.73 181.566 152.73 197.919ZM129.267 325.425V195.549C129.267 192.942 128.556 191.52 126.66 191.52C124.527 191.52 124.053 192.705 124.053 195.549V325.425C124.053 327.795 124.764 329.217 126.66 329.217C128.319 329.217 129.267 327.795 129.267 325.425ZM186.231 349.836H182.676C164.901 349.836 158.502 339.645 158.502 327.558V172.323H181.965V324.951C181.965 327.558 182.913 328.506 184.335 328.506C186.231 328.506 186.942 327.321 186.942 324.951V172.323H210.405V327.558C210.405 339.645 202.821 349.836 186.231 349.836ZM225.904 348.651V193.416H215.713V172.323H259.084V193.416H248.656V348.651H225.904ZM264.383 172.323H303.014V193.416H287.135V244.845H300.881V266.649H287.135V327.321H303.488V348.651H264.383V172.323Z" fill="white"/>
<path d="M168.397 53.2803H159.217L159.277 52.9203L160.777 48.3603L168.517 8.76027H167.857L162.457 14.4003H162.097L163.297 8.28027H181.597L180.397 14.4003H180.037L176.797 8.76027H176.197L168.457 48.3603V52.9203L168.397 53.2803ZM183.216 48.2403C183.216 46.1403 189.336 30.4803 189.336 27.4803C189.336 27.2403 189.096 26.8803 188.976 26.8803C188.436 26.8803 187.116 30.7803 183.036 42.5403L179.316 53.2803H171.456L171.516 52.9203L173.316 48.4803L183.516 9.00027L183.636 5.28027L192.096 4.08027L191.376 6.66027L181.236 45.6603L182.556 42.0003C187.296 28.6203 189.996 20.8803 191.316 20.8803C194.676 20.8803 197.136 24.3003 197.136 26.5803C197.136 29.7603 190.176 47.2203 190.176 49.6803C190.176 49.9803 190.296 50.1003 190.416 50.1003C190.716 50.1003 191.676 48.4803 192.576 46.0203L192.876 46.0803C191.856 50.1003 189.876 53.9403 188.136 53.9403C186.216 53.9403 183.216 51.0003 183.216 48.2403ZM207.932 44.0403L208.232 44.2203C206.672 48.9603 204.152 53.9403 199.652 53.9403C195.992 53.9403 194.252 50.7003 194.252 45.8403C194.252 34.4403 204.092 20.9403 210.152 20.9403C212.192 20.9403 213.272 22.6203 213.272 25.0803C213.272 29.1603 209.912 35.1003 202.532 36.9003C202.052 39.0603 201.752 41.1603 201.752 42.9003C201.752 46.2603 202.832 47.7603 204.212 47.7603C205.952 47.7603 206.972 46.2003 207.932 44.0403ZM208.472 21.6003C207.512 21.6003 204.152 29.3403 202.592 36.4803C206.672 33.7803 208.772 25.0203 208.772 22.3803C208.772 21.9603 208.712 21.6003 208.472 21.6003Z" fill="#BCA371"/>
</svg>
