<svg width="308" height="211" viewBox="0 0 308 211" fill="none" xmlns="http://www.w3.org/2000/svg">
<path opacity="0.9" d="M45.0417 210.186H12.9493L-0.000262251 0.741048H28.4325L31.2476 147.127L36.3148 0.741048H61.9324L66.9997 144.031L70.0963 0.741048H96.5584L83.6089 210.186H52.361L48.7014 86.6023L45.0417 210.186ZM122.559 143.749L119.181 55.3544L115.802 143.749H122.559ZM125.092 210.186L123.403 167.678H114.676L112.987 210.186H89.3403L102.571 0.741048H137.479L151.554 210.186H125.092ZM152.905 0.741048H179.93L180.212 184.569H197.102V210.186H152.905V0.741048ZM200.465 0.741048H227.49L227.772 184.569H244.662V210.186H200.465V0.741048Z" fill="white"/>
<path opacity="0.9" d="M262.719 105.888C253.731 105.888 249.237 101.535 249.237 93.2491V60.6681H262.719V92.2661C262.719 93.6704 263 94.5131 264.123 94.5131C265.247 94.5131 265.668 93.6704 265.668 92.2661V65.162C265.668 62.3533 265.247 61.2299 263.281 59.2638L255.838 51.9611C251.344 47.7481 249.659 43.1137 249.659 36.6537V12.9201C249.659 5.05567 253.45 -6.17865e-07 263.281 -6.17865e-07H266.37C276.341 -6.17865e-07 279.291 5.05567 279.291 11.7966V39.8837H266.23V12.3583C266.23 11.2348 265.809 10.6731 264.826 10.6731C263.843 10.6731 263.421 11.2348 263.421 12.3583V36.0919C263.421 38.7602 263.843 39.6028 265.528 41.4285L272.83 48.7311C278.167 53.5059 279.852 57.2977 279.852 64.6003V91.5639C279.852 100.411 275.358 105.888 265.809 105.888H262.719ZM286.545 105.186V13.2009H280.506V0.702176H306.206V13.2009H300.027V105.186H286.545Z" fill="white"/>
</svg>
