<svg width="492" height="339" viewBox="0 0 492 339" fill="none" xmlns="http://www.w3.org/2000/svg">
<path d="M44.0019 35.9198V145.027H47.1449C50.7369 145.027 52.0839 143.231 52.0839 139.19V41.7568C52.0839 37.7158 51.6349 35.9198 47.5939 35.9198H44.0019ZM44.0019 182.743V336.301H-8.1568e-05V2.24477H68.2479C83.5139 2.24477 95.1879 12.5718 95.1879 33.2258V129.761C95.1879 147.272 86.6569 154.456 79.9219 157.599C87.1059 160.293 96.0859 167.926 96.0859 181.845V324.178C96.0859 329.117 96.9839 332.709 97.8819 335.403V336.301H55.2269C53.4309 334.505 52.0839 330.464 52.0839 325.525V188.58C52.0839 185.437 51.6349 182.743 47.1449 182.743H44.0019ZM205.884 50.7368V288.707C205.884 320.586 188.822 338.546 159.637 338.546H153.351C122.819 338.546 106.655 320.137 106.655 288.707V50.7368C106.655 19.3068 121.023 -0.000224531 153.351 -0.000224531H159.637C191.965 -0.000224531 205.884 19.7558 205.884 50.7368ZM161.433 292.299V46.2468C161.433 41.3078 160.086 38.6138 156.494 38.6138C152.453 38.6138 151.555 40.8588 151.555 46.2468V292.299C151.555 296.789 152.902 299.483 156.494 299.483C159.637 299.483 161.433 296.789 161.433 292.299ZM269.351 338.546H262.616C228.941 338.546 216.818 319.239 216.818 296.34V2.24477H261.269V291.401C261.269 296.34 263.065 298.136 265.759 298.136C269.351 298.136 270.698 295.891 270.698 291.401V2.24477H315.149V296.34C315.149 319.239 300.781 338.546 269.351 338.546ZM344.513 336.301V42.2058H325.206V2.24477H407.373V42.2058H387.617V336.301H344.513ZM417.412 2.24477H490.599V42.2058H460.516V139.639H486.558V180.947H460.516V295.891H491.497V336.301H417.412V2.24477Z" fill="white"/>
</svg>
