<svg width="110" height="102" viewBox="0 0 110 102" fill="none" xmlns="http://www.w3.org/2000/svg">
<path d="M18.6659 100.04H-8.58121e-05L0.121914 99.308L3.17191 90.036L18.9099 9.51603H17.5679L6.58791 20.984H5.85591L8.29591 8.54003H45.5059L43.0659 20.984H42.3339L35.7459 9.51603H34.5259L18.7879 90.036V99.308L18.6659 100.04ZM48.799 89.792C48.799 85.522 61.243 53.68 61.243 47.58C61.243 47.092 60.755 46.36 60.511 46.36C59.413 46.36 56.729 54.29 48.433 78.202L40.869 100.04H24.887L25.009 99.308L28.669 90.28L49.409 10.004L49.653 2.44004L66.855 3.26633e-05L65.391 5.24604L44.773 84.546L47.457 77.104C57.095 49.898 62.585 34.16 65.269 34.16C72.101 34.16 77.103 41.114 77.103 45.75C77.103 52.216 62.951 87.718 62.951 92.72C62.951 93.33 63.195 93.574 63.439 93.574C64.049 93.574 66.001 90.28 67.831 85.278L68.441 85.4C66.367 93.574 62.341 101.382 58.803 101.382C54.899 101.382 48.799 95.404 48.799 89.792ZM99.0553 81.252L99.6653 81.618C96.4933 91.256 91.3693 101.382 82.2193 101.382C74.7773 101.382 71.2393 94.794 71.2393 84.912C71.2393 61.732 91.2473 34.282 103.569 34.282C107.717 34.282 109.913 37.698 109.913 42.7C109.913 50.996 103.081 63.074 88.0753 66.734C87.0993 71.126 86.4893 75.396 86.4893 78.934C86.4893 85.766 88.6853 88.816 91.4913 88.816C95.0293 88.816 97.1033 85.644 99.0553 81.252ZM100.153 35.624C98.2013 35.624 91.3693 51.362 88.1973 65.88C96.4933 60.39 100.763 42.578 100.763 37.21C100.763 36.356 100.641 35.624 100.153 35.624Z" fill="#BCA371"/>
</svg>
