<svg width="48" height="48" viewBox="0 0 48 48" fill="none" xmlns="http://www.w3.org/2000/svg">
<rect x="1" y="1" width="46" height="46" rx="23" stroke="#A5A5A5" stroke-width="2"/>
<path d="M17.9156 34H13.3435V19.2972H17.9156V34ZM15.6296 17.294C14.1617 17.294 12.9766 16.1088 12.9766 14.647C12.9766 13.1851 14.1617 12 15.6296 12C17.0914 12 18.2765 13.1851 18.2765 14.647C18.2765 16.1028 17.0914 17.294 15.6296 17.294ZM35.0247 34H30.4587V26.8532C30.4587 25.1507 30.4286 22.9549 28.0824 22.9549C25.7061 22.9549 25.3452 24.8138 25.3452 26.7328V34H20.7852V19.2972H25.1647V21.3065H25.2249C25.8325 20.1515 27.3244 18.9303 29.5442 18.9303C34.1704 18.9303 35.0247 21.9743 35.0247 25.9327V34Z" fill="#A5A5A5"/>
</svg>
