<svg width="100" height="80" viewBox="0 0 100 80" fill="none" xmlns="http://www.w3.org/2000/svg">
<path d="M12.6027 46.9531L10.7898 27.8811L10.3547 20.3394L5.27849 57.9756L6.43876 66.5326L6.36625 66.9677H1L1.07252 66.5326L3.03047 57.9756L8.17917 19.2516L7.96162 13.0152L8.03414 12.5801H15.866L17.2438 27.3735L17.7514 34.9153L20.2895 27.3735L25.8008 12.5801H33.8501L33.7776 13.0152L32.1097 19.3967L26.5259 61.0213V66.5326L26.4534 66.9677H17.8964L17.9689 66.5326L19.3468 61.0213L24.7855 20.4119L22.1749 27.9537L15.0683 46.9531H12.6027Z" fill="#61E26B"/>
<path d="M55.954 51.7398C57.7502 62.3007 61.8443 69.6877 66.615 69.6877C71.3857 69.6877 75.4798 62.3007 77.2761 51.7398H55.954ZM94.3689 30.8006H80.6252C80.9812 33.7779 81.1598 36.7748 81.1598 39.7745C81.1598 42.7742 80.9812 45.7712 80.6252 48.7485H94.3689C96.15 42.9061 96.15 36.6429 94.3689 30.8006ZM93.2681 27.8093C91.489 23.6365 88.8075 19.9362 85.4276 16.9902C82.0476 14.0443 78.0586 11.9303 73.7641 10.8093C77.2569 15.8338 79.4691 21.6786 80.1981 27.8093H93.2681ZM54.9792 39.7745C54.9757 42.7742 55.1542 45.7715 55.5135 48.7485H77.7165C78.0758 45.7715 78.2544 42.7742 78.2509 39.7745C78.2544 36.7748 78.0758 33.7776 77.7165 30.8006H55.5135C55.1542 33.7776 54.9757 36.7748 54.9792 39.7745ZM73.7641 68.7398C78.0586 67.6186 82.0476 65.5047 85.4276 62.5588C88.8075 59.613 91.489 55.9127 93.2681 51.7398H80.1981C79.4691 57.8705 77.2569 63.7153 73.7641 68.7398ZM52.0702 39.7745C52.0702 36.7748 52.2488 33.7779 52.6049 30.8006H38.8612C37.0801 36.6429 37.0801 42.9061 38.8612 48.7485H52.6049C52.2488 45.7712 52.0702 42.7742 52.0702 39.7745ZM39.9619 51.7398C41.741 55.9127 44.4225 59.613 47.8024 62.5588C51.1823 65.5047 55.1714 67.6186 59.466 68.7398C55.9731 63.7153 53.7609 57.8705 53.0319 51.7398H39.9619ZM59.466 10.8093C55.1715 11.9304 51.1825 14.0444 47.8026 16.9904C44.4227 19.9364 41.7411 23.6366 39.9619 27.8093H53.0319C53.7609 21.6786 55.9731 15.8338 59.466 10.8093ZM77.2761 27.8093C75.4798 17.2499 71.3857 9.86133 66.615 9.86133C61.8443 9.86133 57.7502 17.2499 55.954 27.8093H77.2761Z" fill="#61E26B"/>
</svg>
